# xmcd CD database file
#
# Track frame offsets:
#	150
#	16055
#	30025
#	42993
#	62620
#	81565
#	104083
#	121983
#	145423
#	162923
#
# Disc length: 2352 seconds
#
# Revision: 0
# Processed by: cddbd v1.5.1PL0 Copyright (c) Steve Scherf et al.
# Submitted via: CDex 1.51
#
DISCID=7e092e0a
DTITLE=The Dusters - This Ain't No Jukebox...We're A Rock 'n' Roll Band
DYEAR=1990
DGENRE=Blues
TTITLE0=Phantom of the Strip
TTITLE1=The Truck won't Start
TTITLE2=This ain't No Jukebox...We're a Rock 'n' Roll Band
TTITLE3=How Could You?
TTITLE4=When I Knock (She Lets Me In)
TTITLE5=Hellbound Train
TTITLE6=Street Legal
TTITLE7=What Can I Say?
TTITLE8=Blues Highway
TTITLE9=How Much Longer
EXTD=YEAR: 1990
EXTT0=
EXTT1=
EXTT2=
EXTT3=
EXTT4=
EXTT5=
EXTT6=
EXTT7=
EXTT8=
EXTT9=
PLAYORDER=
